**ABCDEFGHIJKLMNOPQRSTUVWXYZabcdefghijklmnopqrstuvwxyz**************************
**PARASOLID !"#$%&'()*+,-./:;<=>?@[\]^_`{|}~0123456789**************************
**PART1;
MC=unknown;
MC_MODEL=unknown;
MC_ID=unknown;
OS=unknown;
OS_RELEASE=unknown;
FRU=Parasolid 37.1.212;
APPL=Onshape;
SITE=unknown;
USER=unknown;
FORMAT=text;
GUISE=transmit;
KEY=BTGapi::writeModels_.xmt;
FILE=BTGapi::writeModels_.xmt;
DATE=2026-04-25T10:21:06 (UTC);
**PART2;
SCH=SCH_3701212_37102;
USFLD_SIZE=0;
**PART3;
**END_OF_HEADER*****************************************************************
T51 : TRANSMIT FILE created by modeller version 370121223 SCH_3701212_37102_1300
6239 0 12 36 CCCI7 lattice222 0 CCCI4 mesh1006 0 I8 polyline1008 0 CCCCCCCDI5 ow
ner1040 0 CCCI16 boundary_lattice222 0 CCCI13 boundary_mesh1006 0 I17 boundary_p
olyline1008 0 CCCA16 index_map_offset0 0 1 dA9 index_map82 0 A17 node_id_index_m
ap82 0 A20 schema_embedding_map82 0 A5 child12 0 A14 lowest_node_id0 0 1 dA16 me
sh_offset_data206 0 Z1 3147 2 3 0 0 0 0 0 0 0 1e3 1e-8 0 4 5 1 0 1 2 6 0 7 8 9 0
 0 10 11 12 0 0 0 0 0 0 0 81 255 1 2 3086 13 1 14 0 0 0 15 70 11 CI9 list_type0
 0 1 uI10 notransmit0 0 1 lCCCDCCDI12 finger_index0 0 1 dI12 finger_block1012 0
 CZ3 0 4 T1 0 0 5 20 1 16 16 13 255 6 980 0 1 0 17 0 0 18 0 50 255 7 971 0 19 20
 0 0 +.03 -.0235 .01 1 0 0 0 0 -1 31 255 8 2127 0 21 22 0 0 --.026 -.0195 -.016
 0 -1 0 0 0 -1 .0015 29 255 9 1620 0 12 23 0 .0086 -.0139 -.004 19 9 CCCCCCI5 fr
ame230 0 CA5 owner12 0 Z10 425 0 1 18 0 24 0 V0 16 255 11 2117 25 ?27 0 30 22 0
 0 1 18 255 12 1616 29 26 0 28 9 ?1 81 1 29 1974 34 12 0 0 35 32 33 17 255 26 0
 31 38 40 12 36 39 0 37 -18 28 1611 35 41 12 45 23 ?1 81 1 35 1973 34 28 0 0 43
 29 42 17 41 0 44 46 50 28 48 47 0 49 -18 45 1606 43 51 28 55 52 ?1 29 23 1615 0
 28 52 9 .0086 -.0139 .004 29 52 1610 0 45 53 23 .03 -.0139 .009 29 53 1605 0 55
 54 52 .03 -.0139 -.009 18 55 1601 57 60 45 59 53 ?1 29 54 1171 0 59 56 53 .0086
 -.0195 .009 18 59 1169 58 61 55 62 54 ?1 29 56 1168 0 62 64 54 .0086 -.0195 .00
4 18 62 1166 63 48 59 65 56 ?1 29 64 1165 0 65 66 56 .0066 -.0195 .004 18 65 116
3 70 68 62 67 64 ?1 29 66 1162 0 67 69 64 .0066 -.0195 .011 18 67 1160 75 71 65
 73 66 ?1 29 69 1154 0 73 72 66 .0066 -.0195 -.011 18 73 1152 74 76 67 80 69 ?1
 29 72 1151 0 80 77 69 .0066 -.0195 -.004 18 80 1149 78 79 73 82 72 ?1 29 77 114
4 0 82 85 72 .0086 -.0195 -.004 18 82 1142 84 38 80 81 77 ?1 29 85 1141 0 81 83
 77 .03 -.0195 -.011 18 81 1137 89 90 82 87 85 ?1 29 83 1136 0 87 88 85 .03 -.01
95 -.009 18 87 1132 86 93 81 95 83 ?1 29 88 1131 0 95 91 83 .03 -.0195 .009 18 9
5 1127 94 92 87 96 88 ?1 29 91 877 0 100 98 88 .03 -.0195 -.0166 18 100 825 97 9
9 101 105 91 ?1 29 98 878 0 105 103 91 .0266 -.0195 -.02 18 105 829 102 104 100
 106 98 ?1 29 103 879 0 106 110 98 -.0266 -.0195 -.02 18 106 833 107 108 105 109
 103 ?1 29 110 880 0 109 112 103 -.03 -.0195 -.0166 18 109 837 115 114 106 111 1
10 ?1 29 112 881 0 111 113 110 -.03 -.0195 .0166 18 111 841 116 117 109 119 112
 ?1 29 113 882 0 119 118 112 -.0266 -.0195 .02 18 119 845 120 121 111 125 113 ?1
 29 118 883 0 125 123 113 .0266 -.0195 .02 18 125 849 122 124 119 130 118 ?1 29
 123 884 0 130 126 118 .03 -.0195 .0166 18 130 853 128 127 125 129 123 ?1 29 126
 406 0 96 131 123 .03 -.0235 -.0166 18 96 404 135 132 95 133 126 ?1 29 131 401 0
 133 134 126 .0266 -.0235 -.02 18 133 399 137 140 96 139 131 ?1 29 134 396 0 139
 136 131 -.0266 -.0235 -.02 18 139 394 138 144 133 145 134 ?1 29 136 391 0 145 1
42 134 -.03 -.0235 -.0166 18 145 389 143 141 139 148 136 ?1 29 142 386 0 148 150
 136 -.03 -.0235 .0166 18 148 384 146 149 145 147 142 ?1 29 150 381 0 147 151 14
2 -.0266 -.0235 .02 18 147 379 155 153 148 152 150 ?1 29 151 376 0 152 154 150 .
0266 -.0235 .02 18 152 374 156 160 147 101 151 ?1 29 154 371 0 101 158 151 .03 -
.0235 .0166 18 101 369 157 159 152 100 154 ?1 29 158 1509 0 161 165 154 .0086 -.
0195 -.009 18 161 1411 162 163 164 167 158 ?1 29 165 1511 0 170 169 158 .0066 -.
0131 -.004 18 170 1397 166 168 171 172 165 ?1 29 169 1512 0 172 174 165 .0066 -.
0131 -.011 18 172 1401 173 175 170 164 169 ?1 29 174 1513 0 164 176 169 .03 -.01
31 -.011 18 164 1405 180 178 172 161 174 ?1 29 176 1518 0 171 177 174 .03 -.0195
 .011 18 171 1288 179 185 181 170 176 ?1 29 177 1523 0 129 183 176 .0066 -.0131
 .011 18 129 1270 182 184 130 186 177 ?1 29 183 1524 0 186 190 177 .03 -.0131 .0
11 18 186 1290 187 188 129 181 183 ?1 29 190 1528 0 181 189 183 .0066 -.0131 .00
4 18 181 1274 192 195 186 171 190 ?1 29 189 1904 0 194 191 190 .0086 -.0139 -.00
9 18 194 1831 32 40 193 0 189 ?1 29 191 1909 0 199 200 189 .03 -.0139 -.004 18 1
99 1833 197 198 196 193 191 ?1 29 200 1910 0 193 203 191 .03 -.0131 -.004 18 193
 1823 205 201 199 194 200 ?1 29 203 1913 0 196 204 200 .0086 -.0139 .009 18 196
 1736 202 206 210 199 203 ?1 29 204 1915 0 167 208 203 .03 -.0131 .004 18 167 17
46 207 209 161 210 204 ?1 29 208 1916 0 210 0 204 .03 -.0139 .004 18 210 1744 21
1 215 167 196 208 ?1 81 1 211 1745 34 210 0 0 213 207 212 17 215 0 214 216 220 2
10 217 218 0 219 +15 255 214 951 0 222 19 0 17 216 0 214 225 215 167 224 221 0 0
 +17 220 0 214 215 223 45 92 226 0 217 -17 217 0 227 229 219 45 215 218 0 0 -16
 218 1721 228 ?215 221 230 231 0 0 1 17 219 0 227 217 49 210 235 233 0 224 -15 2
27 1759 0 49 232 0 17 49 0 227 219 229 28 46 230 0 235 +17 235 0 234 48 224 28 2
19 233 0 0 +16 233 1713 240 ?235 236 221 238 0 0 1 17 224 0 234 235 209 210 216
 221 0 0 -15 234 1301 0 237 239 0 17 209 0 234 224 195 167 241 245 0 242 +16 221
 1724 213 ?216 233 218 243 0 0 1 81 1 213 1726 34 221 0 0 228 211 244 30 255 243
 1899 0 221 231 247 0 +.03 -.0135 .004 0 1 0 30 231 1900 0 218 250 243 0 +.03 -.
0139 .0065 0 0 -1 30 247 1896 0 230 243 238 0 +.0086 -.0139 .0065 0 0 -1 16 230
 1698 249 ?49 218 246 247 0 0 1 30 238 1893 0 233 247 248 0 +.03 -.0139 .004 -1
 0 0 30 248 1892 0 236 238 254 0 +.03 -.0139 .009 -1 0 0 16 236 1703 255 ?229 25
2 233 248 0 0 1 30 254 1889 0 253 248 251 0 +.03 -.0135 -.004 0 -1 0 16 253 1807
 258 ?198 260 39 254 0 0 1 30 251 1888 0 260 254 256 0 +.03 -.0139 -.0065 0 0 -1
 16 260 1810 259 ?257 261 253 251 0 0 1 30 256 1884 0 39 251 265 0 +.0086 -.0139
 -.0065 0 0 -1 16 39 1789 263 ?36 253 21 256 0 0 1 30 265 1881 0 261 256 262 0 +
.03 -.0139 -.009 -1 0 0 16 261 1802 264 ?266 246 260 265 0 0 1 30 262 1880 0 246
 265 270 0 +.03 -.0139 -.004 -1 0 0 16 246 1794 268 ?267 230 261 262 0 0 1 30 27
0 1504 0 269 262 271 0 +.0066 -.0131 .0075 123908819712629e-30 0 -1 16 269 1204
 275 ?272 245 273 270 0 0 1 30 271 1503 0 245 270 274 0 +.0076 -.0131 .004 1 0 0
 16 245 1210 277 ?209 280 269 271 0 0 1 30 274 1500 0 280 271 279 0 +.03 -.0131
 .01 0 0 -1 16 280 1249 276 ?242 278 245 274 0 0 1 30 279 1499 0 278 274 281 0 +
.0183 -.0131 .011 1 0 0 16 278 1246 282 ?284 283 280 279 0 0 1 30 281 1498 0 285
 279 286 0 +.0066 -.0195 .0075 123908819712629e-30 0 -1 16 285 1255 290 ?68 288
 287 281 0 0 1 30 286 1497 0 288 281 289 0 +.0076 -.0195 .004 1 0 0 16 288 1260
 295 ?291 293 285 286 0 0 1 30 289 1496 0 293 286 292 0 +.0086 -.0195 .0065 0 0
 -1 16 293 1216 294 ?50 296 288 289 0 0 1 30 292 1495 0 296 289 300 0 +.0193 -.0
195 .009 1 0 0 16 296 1265 297 ?298 273 293 292 0 0 1 30 300 1493 0 273 292 299
 0 +.0183 -.0195 .011 1 0 0 16 273 1238 302 ?305 269 296 300 0 0 1 30 299 1492 0
 283 300 304 0 +.0066 -.0131 .011 0 -1 0 16 283 1243 301 ?303 309 278 299 0 0 1
 30 304 1491 0 309 299 310 0 +.03 -.0131 .011 0 -1 0 16 309 1235 307 ?308 226 28
3 304 0 0 1 30 310 1490 0 226 304 306 0 +.03 -.0131 .009 0 -1 0 16 226 1227 313
 ?92 315 309 310 0 0 1 30 306 1489 0 315 310 311 0 +.0086 -.0131 .009 0 -1 0 16
 315 1221 314 ?61 47 226 306 0 0 1 30 311 1488 0 47 306 312 0 +.0086 -.0131 .004
 0 -1 0 16 47 1213 316 ?48 320 315 311 0 0 1 30 312 1487 0 320 311 318 0 +.0066
 -.0131 .004 0 -1 0 16 320 1207 317 ?319 321 47 312 0 0 1 30 318 1484 0 325 312
 323 0 +.03 -.0131 -.01 0 0 1 16 325 1347 322 ?201 324 326 318 0 0 1 30 323 1483
 0 324 318 330 0 +.0183 -.0131 -.011 1 0 0 16 324 1341 327 ?328 329 325 323 0 0
 1 30 330 1482 0 329 323 332 0 +.0066 -.0131 -.0075 123908819712629e-30 0 -1 16
 329 1335 335 ?334 331 324 330 0 0 1 30 332 1481 0 331 330 333 0 +.0076 -.0131 -
.004 1 0 0 16 331 1369 336 ?337 339 329 332 0 0 1 30 333 1480 0 252 332 338 0 +.
0086 -.0195 -.0065 0 0 -1 16 252 1361 340 ?341 345 236 333 0 0 1 30 338 1479 0 3
45 333 343 0 +.0193 -.0195 -.009 1 0 0 16 345 1353 342 ?344 350 252 338 0 0 1 30
 343 1477 0 350 338 346 0 +.0183 -.0195 -.011 1 0 0 16 350 1383 348 ?90 347 345
 343 0 0 1 30 346 1476 0 347 343 349 0 +.0066 -.0195 -.0075 123908819712629e-30
 0 -1 16 347 1378 351 ?76 326 350 346 0 0 1 30 349 1475 0 326 346 355 0 +.0076 -
.0195 -.004 1 0 0 16 326 1327 352 ?353 325 347 349 0 0 1 30 355 1474 0 287 349 3
54 0 +.0066 -.0131 -.004 0 -1 0 16 287 1332 357 ?360 285 359 355 0 0 1 30 354 14
73 0 359 355 356 0 +.0066 -.0131 -.011 0 -1 0 16 359 1338 358 ?364 287 365 354 0
 0 1 30 356 1472 0 365 354 362 0 +.03 -.0131 -.011 0 -1 0 16 365 1344 363 ?361 3
59 368 356 0 0 1 30 362 1471 0 368 356 370 0 +.03 -.0131 -.009 0 -1 0 16 368 135
0 366 ?93 365 369 362 0 0 1 30 370 1470 0 369 362 367 0 +.0086 -.0131 -.009 0 -1
 0 16 369 1358 371 ?163 368 339 370 0 0 1 30 367 1469 0 339 370 375 0 +.0086 -.0
131 -.004 0 -1 0 16 339 1366 373 ?38 369 331 367 0 0 1 30 375 101 0 372 367 374
 0 +.03 -.0235 .01 0 0 -1 16 372 99 376 ?380 378 377 375 0 0 1 31 374 221 0 378
 375 379 0 +.0266 -.0235 .0166 0 -1 0 0 0 -1 .0034 16 378 219 381 ?160 385 372 3
74 0 0 1 30 379 226 0 385 374 382 0 +3469446951953615e-33 -.0235 .02 1 0 0 16 38
5 224 383 ?384 387 378 379 0 0 1 31 382 231 0 387 379 390 0 +-.0266 -.0235 .0166
 0 -1 0 0 0 -1 .0034 16 387 229 389 ?149 386 385 382 0 0 1 30 390 236 0 386 382
 388 0 +-.03 -.0235 3469446951953615e-33 0 0 -1 16 386 234 391 ?141 392 387 390
 0 0 1 31 388 241 0 392 390 394 0 +-.0266 -.0235 -.0166 0 -1 0 0 0 -1 .0034 16 3
92 239 393 ?144 395 386 388 0 0 1 30 394 246 0 395 388 396 0 +3469446951953615e-
33 -.0235 -.02 1 0 0 16 395 244 400 ?140 398 392 394 0 0 1 31 396 251 0 398 394
 397 0 +.0266 -.0235 -.0166 0 -1 0 0 0 -1 .0034 16 398 249 399 ?132 405 395 396
 0 0 1 31 397 266 0 405 396 401 0 +-.016 -.0235 -.001732050807568875 0 -1 0 0 0
 -1 5e-4 16 405 264 403 ?402 404 398 397 0 0 1 31 401 271 0 404 397 406 0 +-.014
 -.0235 .00173205080756888 0 -1 0 0 0 -1 5e-4 16 404 269 410 ?407 408 405 401 0
 0 1 31 406 276 0 408 401 409 0 +-.016 -.0235 .001732050807568875 0 -1 0 0 0 -1
 5e-4 16 408 274 412 ?415 414 404 406 0 0 1 31 409 281 0 414 406 411 0 +-.014 -.
0235 -.00173205080756888 0 -1 0 0 0 -1 5e-4 16 414 279 413 ?419 420 408 409 0 0
 1 31 411 286 0 420 409 417 0 +-.013 -.0235 897977907967087e-33 0 -1 0 0 0 -1 5e
-4 16 420 284 418 ?416 423 414 411 0 0 1 31 417 291 0 423 411 425 0 +-.015 -.023
5 170761842166467e-32 0 -1 0 0 0 -1 5e-4 16 423 289 421 ?424 422 420 417 0 0 1 3
1 425 306 0 422 417 426 0 +-.017 -.0235 897977907967087e-33 0 -1 0 0 0 -1 5e-4 1
6 422 304 430 ?428 427 423 425 0 0 1 30 426 876 0 429 425 431 0 +.03 -.0195 .01
 0 0 -1 16 429 813 435 ?185 433 432 426 321 432 1 31 431 875 0 433 426 434 0 +.0
26 -.0195 -.016 0 -1 0 0 0 -1 .001 16 433 809 436 ?440 437 429 431 0 0 1 31 434
 874 0 437 431 438 0 +.026 -.0195 .016 0 -1 0 0 0 -1 .001 16 437 805 439 ?442 44
5 433 434 0 0 1 31 438 873 0 445 434 444 0 +-.026 -.0195 .016 0 -1 0 0 0 -1 .001
 16 445 801 441 ?443 446 437 438 0 0 1 31 444 872 0 446 438 447 0 +-.026 -.0195
 -.016 0 -1 0 0 0 -1 .001 16 446 797 449 ?448 450 445 444 0 0 1 31 447 871 0 450
 444 451 0 +.0266 -.0195 .0166 0 -1 0 0 0 -1 .0034 16 450 793 455 ?453 452 446 4
47 0 0 1 30 451 870 0 452 447 454 0 +3469446951953615e-33 -.0195 .02 1 0 0 16 45
2 789 460 ?456 458 450 451 0 0 1 31 454 869 0 458 451 457 0 +-.0266 -.0195 .0166
 0 -1 0 0 0 -1 .0034 16 458 785 459 ?117 461 452 454 0 0 1 30 457 868 0 461 454
 465 0 +-.03 -.0195 3469446951953615e-33 0 0 -1 16 461 781 462 ?114 463 458 457
 0 0 1 31 465 867 0 463 457 464 0 +-.0266 -.0195 -.0166 0 -1 0 0 0 -1 .0034 16 4
63 777 467 ?108 470 461 465 0 0 1 30 464 866 0 470 465 469 0 +3469446951953615e-
33 -.0195 -.02 1 0 0 16 470 773 466 ?104 377 463 464 0 0 1 31 469 865 0 377 464
 468 0 +.0266 -.0195 -.0166 0 -1 0 0 0 -1 .0034 16 377 769 474 ?475 372 470 469
 0 0 1 30 468 972 0 472 469 473 0 +.03 -.0235 -.0166 0 1 0 16 472 885 471 ?478 4
80 476 468 0 0 1 30 473 973 0 427 468 479 0 +.0266 -.0235 -.02 0 1 0 16 427 886
 477 ?481 485 422 473 0 0 1 30 479 974 0 485 473 483 0 +-.0266 -.0235 -.02 0 1 0
 16 485 887 482 ?484 486 427 479 0 0 1 30 483 975 0 486 479 490 0 +-.03 -.0235 -
.0166 0 1 0 16 486 888 488 ?487 489 485 483 0 0 1 30 490 976 0 489 483 491 0 +-.
03 -.0235 .0166 0 1 0 16 489 889 495 ?492 493 486 490 0 0 1 30 491 977 0 493 490
 494 0 +-.0266 -.0235 .02 0 1 0 16 493 890 497 ?121 500 489 491 0 0 1 30 494 978
 0 500 491 499 0 +.0266 -.0235 .02 0 1 0 16 500 891 496 ?124 476 493 494 0 0 1 3
0 499 979 0 476 494 498 0 +.03 -.0235 .0166 0 1 0 16 476 892 501 ?127 472 500 49
9 0 0 1 31 498 2078 0 480 499 502 0 --.026 -.0195 .016 0 -1 0 0 0 -1 .0021 16 48
0 2075 504 ?503 505 472 498 0 0 1 31 502 2085 0 506 498 510 0 --.026 -.0195 .016
 0 -1 0 0 0 -1 .0015 16 506 2305 508 ?507 509 515 502 0 0 1 31 510 2092 0 505 50
2 511 0 -.026 -.0195 .016 0 -1 0 0 0 -1 .002 16 505 2089 513 ?512 30 480 510 0 0
 1 31 511 2099 0 509 510 514 0 -.026 -.0195 .016 0 -1 0 0 0 -1 .0015 16 509 2256
 516 ?520 517 506 511 0 0 1 31 514 2106 0 30 511 518 0 -.026 -.0195 -.016 0 -1 0
 0 0 -1 .0021 16 30 2103 519 ?522 11 505 514 0 0 1 31 518 2113 0 517 514 22 0 -.
026 -.0195 -.016 0 -1 0 0 0 -1 .0015 16 517 2207 525 ?524 21 509 518 0 0 1 31 22
 2120 0 11 518 8 0 --.026 -.0195 -.016 0 -1 0 0 0 -1 .0021 81 1 525 2407 34 517
 0 0 516 519 521 17 524 0 523 524 524 0 529 517 0 0 +16 21 2158 530 ?527 39 517
 8 0 0 1 81 1 530 2410 34 21 0 0 25 528 526 17 527 0 533 527 527 0 535 21 0 0 +1
5 533 2125 0 527 531 0 17 535 0 534 535 535 0 527 21 0 0 -15 534 2174 0 535 532
 0 14 255 532 2180 536 ?540 538 537 6 539 +0 0 540 538 24 81 1 536 3135 541 532
 545 0 543 542 544 14 540 2185 542 ?546 532 550 6 547 -0 0 546 532 24 14 538 224
4 543 ?532 548 549 6 552 -0 0 532 548 24 15 537 2173 0 555 532 534 51 255 539 23
60 0 532 554 547 0 --.026 -.02 -.016 0 1 0 .0015 0 0 1 13 24 426 0 0 0 0 0 0 10
 17 14 17 944 551 ?553 0 556 6 557 +0 0 553 0 24 81 1 551 3087 541 17 559 0 0 55
8 560 14 553 948 558 ?561 17 565 6 20 +0 0 561 17 24 15 556 945 0 563 17 562 51
 557 969 0 17 564 20 0 -.026 -.0235 .016 0 1 0 .001 0 0 1 51 564 968 0 570 566 5
57 0 --.026 -.0235 .016 0 1 0 .001 0 0 1 51 20 970 0 553 557 7 0 -.026 -.0235 -.
016 0 1 0 .001 0 0 1 14 570 940 568 ?531 561 567 6 564 +0 0 531 561 24 51 566 96
7 0 561 569 564 0 --.026 -.0235 -.016 0 1 0 .001 0 0 1 14 561 936 571 ?570 553 5
75 6 566 +0 0 570 553 24 51 569 966 0 572 573 566 0 -.0266 -.0235 .0166 0 1 0 .0
034 0 0 1 14 572 934 574 ?577 19 580 6 569 -0 0 577 19 24 50 573 965 0 577 579 5
69 0 +3469446951953615e-33 -.0235 .02 0 0 1 1 0 0 14 577 932 576 ?578 572 584 6
 573 +0 0 578 572 24 51 579 964 0 578 585 573 0 --.0266 -.0235 .0166 0 1 0 .0034
 0 0 1 14 578 930 582 ?583 577 581 6 579 -0 0 583 577 24 50 585 963 0 583 588 57
9 0 +-.03 -.0235 3469446951953615e-33 1 0 0 0 0 -1 14 583 928 590 ?586 578 589 6
 585 -0 0 586 578 24 51 588 962 0 586 587 585 0 --.0266 -.0235 -.0166 0 1 0 .003
4 0 0 1 14 586 926 591 ?595 583 593 6 588 -0 0 595 583 24 50 587 961 0 592 594 5
88 0 +3469446951953615e-33 -.0235 -.02 0 0 1 1 0 0 14 592 924 596 ?600 598 597 6
 587 -0 0 600 598 24 51 594 960 0 599 601 587 0 -.0266 -.0235 -.0166 0 1 0 .0034
 0 0 1 14 599 922 605 ?19 602 603 6 594 -0 0 19 602 24 51 601 959 0 598 604 594
 0 --.016 -.0235 -.001732050807568875 0 1 0 5e-4 0 0 1 14 598 918 607 ?592 610 6
09 6 601 +0 0 592 610 24 51 604 958 0 610 606 601 0 --.014 -.0235 .0017320508075
6888 0 1 0 5e-4 0 0 1 14 610 914 608 ?598 611 612 6 604 +0 0 598 611 24 51 606 9
57 0 611 614 604 0 --.016 -.0235 .001732050807568875 0 1 0 5e-4 0 0 1 14 611 910
 613 ?610 615 616 6 606 +0 0 610 615 24 51 614 956 0 615 620 606 0 --.014 -.0235
 -.00173205080756888 0 1 0 5e-4 0 0 1 14 615 906 618 ?611 617 619 6 614 +0 0 611
 617 24 51 620 955 0 617 625 614 0 --.013 -.0235 897977907967087e-33 0 1 0 5e-4
 0 0 1 14 617 902 621 ?615 623 622 6 620 +0 0 615 623 24 51 625 954 0 623 624 62
0 0 --.015 -.0235 170761842166467e-32 0 1 0 5e-4 0 0 1 14 623 898 626 ?617 595 6
30 6 625 +0 0 617 595 24 51 624 953 0 595 627 625 0 --.017 -.0235 89797790796708
7e-33 0 1 0 5e-4 0 0 1 14 595 894 628 ?623 586 629 6 624 +0 0 623 586 24 50 627
 857 0 632 635 624 0 +693889390390723e-32 -.0195 3469446951953615e-33 0 -1 0 1 0
 0 14 632 684 634 ?631 600 633 6 627 -531 639 631 600 24 50 635 3 0 600 640 627
 0 +693889390390723e-32 -.0235 3469446951953615e-33 0 -1 0 1 0 0 14 600 1 637 ?6
32 592 638 6 635 +0 0 632 592 24 50 640 1453 0 636 643 635 0 +.0086 -.0131 -.006
5 -1 0 0 0 0 1 14 636 1437 645 ?602 639 31 6 640 -0 0 602 639 24 50 643 1454 0 6
41 644 640 0 +.0193 -.0131 -.009 0 0 -1 -1 0 0 14 641 1433 642 ?646 650 648 6 64
3 -0 0 646 650 24 50 644 1456 0 650 647 643 0 +.0183 -.0131 -.011 0 0 -1 -1 0 0
 14 650 1425 649 ?641 651 655 6 644 +0 0 641 651 24 50 647 1457 0 651 653 644 0
 +.0066 -.0131 -.0075 -1 0 -123908819712629e-30 -123908819712629e-30 0 1 14 651
 1421 652 ?650 631 654 6 647 +0 0 650 631 24 50 653 1458 0 631 656 647 0 +.0076
 -.0131 -.004 0 0 -1 -1 0 0 14 631 1417 660 ?651 632 657 6 653 -0 0 651 632 24 5
0 656 1460 0 646 658 653 0 +693889390390723e-32 -.0131 3469446951953615e-33 0 -1
 0 1 0 0 14 646 1441 659 ?662 641 665 6 656 -0 0 662 641 24 50 658 1461 0 662 66
4 656 0 +.0066 -.0131 .0075 -1 0 -123908819712629e-30 -123908819712629e-30 0 1 1
4 662 1294 661 ?239 646 663 6 658 +0 0 239 646 24 50 664 1462 0 239 666 658 0 +.
0076 -.0131 .004 0 0 -1 -1 0 0 14 239 1298 667 ?669 662 234 6 664 +0 0 669 662 2
4 50 666 1463 0 602 668 664 0 +.0086 -.0131 .0065 -1 0 0 0 0 1 14 602 1302 670 ?
599 636 44 6 666 -0 0 599 636 24 50 668 1464 0 669 671 666 0 +.0193 -.0131 .009
 0 0 -1 -1 0 0 14 669 1306 675 ?673 239 672 6 668 +0 0 673 239 24 50 671 1466 0
 673 674 668 0 +.0183 -.0131 .011 0 0 -1 -1 0 0 14 673 1314 680 ?676 669 678 6 6
71 -0 0 676 669 24 50 674 1468 0 676 677 671 0 +693889390390723e-32 -.0131 34694
46951953615e-33 0 -1 0 1 0 0 14 676 1318 679 ?232 673 681 6 674 -0 0 232 673 24
 50 677 1869 0 685 682 674 0 +.03 -.0139 -.0065 0 1 0 0 0 1 14 685 1847 683 ?684
 232 687 6 677 -0 0 684 232 24 50 682 1875 0 232 690 677 0 +.03 -.0139 .0065 0 1
 0 0 0 1 14 232 1756 689 ?685 676 227 6 682 -0 0 685 676 24 51 690 2355 0 686 68
8 682 0 --.026 -.02 .016 0 1 0 .0021 0 0 1 14 686 2332 694 ?695 684 692 6 690 -0
 0 695 684 24 51 688 2356 0 684 693 690 0 --.026 -.02 .016 0 1 0 .0015 0 0 1 14
 684 2327 691 ?686 685 698 6 688 +0 0 686 685 24 50 693 2357 0 695 547 688 0 +69
3889390390723e-32 0 3469446951953615e-33 0 -1 0 1 0 0 14 695 2342 700 ?696 686 6
99 6 693 -0 0 696 686 24 51 547 2359 0 540 539 693 0 --.026 -.02 -.016 0 1 0 .00
21 0 0 1 81 1 700 3128 541 695 697 0 694 701 705 14 696 2278 701 ?703 695 702 6
 704 +0 0 703 695 24 15 699 2345 0 706 695 710 17 706 0 699 706 706 0 708 515 0
 0 +15 710 2346 0 707 695 0 17 707 0 710 707 707 0 709 711 0 0 -17 709 0 692 709
 709 0 707 711 0 0 +16 711 2299 715 ?709 515 712 713 0 0 1 81 1 715 2301 34 711
 0 0 714 717 720 16 515 2314 717 ?706 506 711 250 0 0 1 16 712 2265 719 ?716 711
 718 721 0 0 1 31 713 2372 0 711 722 250 0 +-.026 0 .016 0 -1 0 0 0 -1 .0021 31
 722 2375 0 724 723 713 0 +-.026 0 -.016 0 -1 0 0 0 -1 .0015 31 250 2371 0 515 7
13 231 0 +-.026 0 .016 0 -1 0 0 0 -1 .0015 16 724 2167 725 ?726 730 728 722 0 0
 1 31 723 2376 0 728 727 722 0 +-.026 0 -.016 0 -1 0 0 0 -1 .0021 16 728 2152 72
9 ?735 724 731 723 0 0 1 31 727 2379 0 733 732 723 0 +.026 0 -.016 0 -1 0 0 0 -1
 .0021 16 733 2201 734 ?736 718 730 727 0 0 1 31 732 2380 0 730 721 727 0 +.026
 0 -.016 0 -1 0 0 0 -1 .0015 16 730 2216 740 ?737 733 724 732 0 0 1 31 721 2383
 0 712 738 732 0 +.026 0 .016 0 -1 0 0 0 -1 .0015 31 738 2384 0 718 739 721 0 +.
026 0 .016 0 -1 0 0 0 -1 .002 16 718 2250 742 ?745 712 733 738 0 0 1 31 739 2716
 0 744 741 738 0 +-.026 -.0235 .016 0 -1 0 0 0 -1 .0015 16 744 2666 743 ?749 750
 747 739 0 0 1 31 741 2717 0 731 748 739 0 +-.026 -.0222 .016 0 -1 0 0 0 -1 .001
 16 731 2661 746 ?753 728 750 741 0 0 1 31 748 2718 0 750 755 741 0 +-.026 -.022
2 .016 0 -1 0 0 0 -1 .0015 16 750 2658 751 ?754 731 744 748 0 0 1 31 755 2720 0
 752 756 748 0 +.026 -.0235 .016 0 -1 0 0 0 -1 .0015 16 752 2549 760 ?758 757 75
9 755 0 0 1 31 756 2721 0 761 765 755 0 +.026 -.0222 .016 0 -1 0 0 0 -1 .001 16
 761 2544 763 ?762 764 757 756 0 0 1 31 765 2722 0 757 766 756 0 +.026 -.0222 .0
16 0 -1 0 0 0 -1 .0015 16 757 2541 770 ?767 761 752 765 0 0 1 31 766 2724 0 764
 768 765 0 +.026 -.0235 -.016 0 -1 0 0 0 -1 .0015 16 764 2588 769 ?772 775 761 7
66 0 0 1 31 768 2725 0 774 771 766 0 +.026 -.0222 -.016 0 -1 0 0 0 -1 .001 16 77
4 2583 773 ?776 777 775 768 0 0 1 31 771 2726 0 775 779 768 0 +.026 -.0222 -.016
 0 -1 0 0 0 -1 .0015 16 775 2580 778 ?780 774 764 771 0 0 1 31 779 2727 0 777 78
1 771 0 +-.026 -.0235 -.016 0 -1 0 0 0 -1 .0015 16 777 2627 785 ?783 782 774 779
 0 0 1 31 781 2729 0 747 784 779 0 +-.026 -.0222 -.016 0 -1 0 0 0 -1 .0015 16 74
7 2619 790 ?786 744 782 781 0 0 1 31 784 2730 0 782 788 781 0 +-.026 -.0222 -.01
6 0 -1 0 0 0 -1 .001 16 782 2622 787 ?789 747 777 784 0 0 1 31 788 3028 0 791 79
5 784 0 +-.015 -.0195 1653273178848925e-33 0 -1 0 0 0 -1 .0135 16 791 2910 792 ?
793 794 0 788 0 0 1 31 795 3036 0 759 797 788 0 +-.015 -.0205 1653273178848925e-
33 0 -1 0 0 0 -1 .0135 16 759 2915 800 ?799 752 796 795 0 0 1 31 797 3037 0 796
 798 795 0 +-.017 -.0205 897977907967087e-33 0 -1 0 0 0 -1 5e-4 16 796 2875 804
 ?805 759 802 797 0 0 1 31 798 3038 0 802 803 797 0 +-.015 -.0205 17076184216646
7e-32 0 -1 0 0 0 -1 5e-4 16 802 2880 801 ?808 796 810 798 0 0 1 31 803 3039 0 81
0 806 798 0 +-.013 -.0205 897977907967087e-33 0 -1 0 0 0 -1 5e-4 16 810 2885 809
 ?807 802 811 803 0 0 1 31 806 3040 0 811 815 803 0 +-.014 -.0205 -.001732050807
56888 0 -1 0 0 0 -1 5e-4 16 811 2890 813 ?812 810 814 806 0 0 1 31 815 3041 0 81
4 816 806 0 +-.016 -.0205 .001732050807568875 0 -1 0 0 0 -1 5e-4 16 814 2895 820
 ?818 811 817 815 0 0 1 31 816 3042 0 817 819 815 0 +-.014 -.0205 .0017320508075
6888 0 -1 0 0 0 -1 5e-4 16 817 2900 821 ?825 814 794 816 0 0 1 31 819 3043 0 794
 0 816 0 +-.016 -.0205 -.001732050807568875 0 -1 0 0 0 -1 5e-4 16 794 2905 822 ?
823 817 791 819 0 0 1 81 1 822 3071 34 794 0 0 821 792 824 17 823 0 827 823 823
 0 830 794 0 0 +15 827 2996 0 823 829 826 17 830 0 609 830 830 0 823 794 0 0 -15
 609 2797 0 830 598 828 15 828 917 0 402 598 0 17 402 0 828 402 402 0 831 405 0
 0 +17 831 0 832 831 831 0 402 405 0 0 -15 832 71 0 831 600 834 15 834 72 0 833
 600 835 17 833 0 834 833 833 0 407 404 0 0 -15 835 73 0 836 600 840 17 836 0 83
5 836 836 0 415 408 0 0 -15 840 74 0 838 600 837 17 838 0 840 838 838 0 419 414
 0 0 -15 837 75 0 839 600 845 17 839 0 837 839 839 0 416 420 0 0 -15 845 76 0 84
1 600 843 17 841 0 845 841 841 0 424 423 0 0 -15 843 77 0 842 600 0 17 842 0 843
 842 842 0 428 422 0 0 -17 428 0 844 428 428 0 842 422 0 0 +15 844 893 0 428 595
 0 17 424 0 846 424 424 0 841 423 0 0 +15 846 897 0 424 623 0 17 416 0 850 416 4
16 0 839 420 0 0 +15 850 901 0 416 617 0 17 419 0 847 419 419 0 838 414 0 0 +15
 847 905 0 419 615 0 17 415 0 848 415 415 0 836 408 0 0 +15 848 909 0 415 611 0
 17 407 0 849 407 407 0 833 404 0 0 +15 849 913 0 407 610 0 14 829 2993 852 ?0 8
55 827 6 854 -0 0 0 855 24 15 826 2997 0 825 829 851 17 825 0 826 825 825 0 853
 817 0 0 +15 851 2998 0 818 829 859 17 818 0 851 818 818 0 860 814 0 0 +15 859 2
999 0 812 829 857 17 812 0 859 812 812 0 858 811 0 0 +15 857 3000 0 807 829 856
 17 807 0 857 807 807 0 863 810 0 0 +15 856 3001 0 808 829 865 17 808 0 856 808
 808 0 861 802 0 0 +15 865 3002 0 805 829 864 17 805 0 865 805 805 0 862 796 0 0
 +15 864 3003 0 866 829 0 17 866 0 864 866 866 0 799 759 0 0 -17 799 0 870 799 7
99 0 866 759 0 0 +15 870 2991 0 799 855 868 14 855 2988 867 ?829 869 870 6 871 +
0 0 829 869 24 15 868 2992 0 875 855 0 17 875 0 868 875 875 0 793 791 0 0 -17 79
3 0 633 793 793 0 875 791 0 0 +15 633 2789 0 793 632 873 15 873 2119 0 872 632 8
74 17 872 0 873 872 872 0 27 11 0 0 -15 874 2105 0 876 632 880 17 876 0 874 876
 876 0 522 30 0 0 -15 880 2091 0 877 632 878 17 877 0 880 877 877 0 512 505 0 0
 -15 878 2077 0 879 632 882 17 879 0 878 879 879 0 503 480 0 0 -15 882 1143 0 88
5 632 0 17 885 0 882 298 291 59 50 293 0 884 -17 298 0 882 881 885 95 884 296 0
 223 +17 291 0 882 885 68 62 237 288 0 50 +17 50 0 44 41 61 62 885 293 0 0 +17 8
84 0 672 206 92 59 298 296 0 0 -15 672 1627 0 51 669 0 17 206 0 672 51 884 196 6
1 315 0 46 -17 92 0 672 884 51 95 220 226 0 298 +17 51 0 672 92 206 45 229 236 0
 220 -17 229 0 227 49 217 196 51 236 0 0 +17 61 0 44 50 46 59 206 315 0 885 +17
 46 0 44 61 41 196 49 230 0 229 -15 44 1632 0 46 602 0 17 68 0 882 291 71 65 883
 285 0 319 +17 237 0 234 195 48 65 291 288 0 0 -17 195 0 234 209 237 181 319 320
 0 241 -17 48 0 234 237 235 62 41 47 0 291 +17 319 0 663 883 272 65 195 320 0 23
7 +17 241 0 681 886 242 181 209 245 0 272 -15 681 1950 0 242 676 0 17 886 0 681
 284 241 129 272 269 0 0 -17 242 0 681 241 284 167 225 280 0 216 +17 272 0 663 3
19 184 181 886 269 0 0 +15 663 1297 0 883 662 0 17 184 0 663 272 883 129 303 283
 0 887 -17 883 0 663 184 319 67 68 285 0 0 -17 303 0 678 305 887 67 184 283 0 88
3 +17 887 0 678 303 188 129 284 278 0 886 -15 678 1317 0 305 673 0 17 188 0 678
 887 305 186 308 309 0 225 -17 284 0 681 242 886 186 887 278 0 0 +17 305 0 678 1
88 303 171 71 273 0 0 +17 308 0 214 222 225 171 188 309 0 305 +17 225 0 214 308
 216 186 242 280 0 284 -17 222 0 214 159 308 130 185 429 0 0 -17 159 0 214 380 2
22 101 127 476 0 889 -17 185 0 882 71 888 171 222 429 0 308 +17 71 0 882 68 185
 67 305 273 0 303 -17 888 0 882 185 456 130 453 450 0 222 -17 456 0 882 888 890
 125 891 452 0 0 +17 453 0 580 895 127 125 888 450 0 456 +15 580 933 0 453 572 0
 17 895 0 580 889 453 152 124 500 0 384 -17 127 0 580 453 889 130 159 476 0 888
 +17 889 0 580 127 895 101 160 378 0 893 -17 160 0 892 894 893 152 889 378 0 895
 +17 893 0 892 160 132 101 380 372 0 0 -15 892 573 0 132 600 832 17 132 0 892 89
3 140 96 900 398 0 896 +17 380 0 214 478 159 96 893 372 0 0 +17 478 0 214 898 38
0 100 896 472 0 475 +17 898 0 214 178 478 81 99 321 0 361 -17 896 0 603 900 475
 96 478 472 0 380 -17 475 0 603 896 481 100 897 377 0 0 +15 603 921 0 475 599 0
 17 481 0 603 475 900 105 899 427 0 897 +17 897 0 882 901 99 105 475 377 0 0 -17
 901 0 882 905 897 106 104 470 0 0 -17 99 0 882 897 90 100 898 321 0 478 +17 90
 0 882 99 76 81 902 350 0 898 +16 321 1138 903 ?99 432 320 426 432 429 1 81 1 90
3 1576 34 321 0 0 435 904 907 16 432 1128 904 ?881 429 321 426 429 321 1 81 1 90
4 1577 34 432 0 0 903 240 910 17 881 0 882 909 298 87 223 432 0 344 +17 909 0 88
2 906 881 161 344 345 0 341 -17 223 0 214 220 93 95 881 432 0 0 -17 344 0 648 60
 163 87 909 345 0 0 +15 648 1436 0 60 641 0 17 60 0 648 266 344 55 93 368 0 257
 -17 163 0 648 344 266 161 40 369 0 909 +17 266 0 648 163 60 194 908 261 0 36 +1
7 40 0 31 26 341 194 163 369 0 266 -15 31 1642 0 26 636 0 17 341 0 31 40 38 161
 906 252 0 0 +17 38 0 31 341 26 82 37 339 0 906 +17 906 0 882 79 909 82 341 252
 0 353 -17 79 0 882 76 906 80 353 326 0 360 -17 353 0 657 37 360 82 79 326 0 0 +
15 657 1420 0 353 631 0 17 37 0 657 914 353 12 38 339 0 267 -17 360 0 657 353 91
5 80 168 287 0 912 +17 915 0 657 360 913 170 337 331 0 0 -17 168 0 654 334 912 1
70 360 287 0 911 -17 912 0 654 168 364 80 76 347 0 0 -15 654 1424 0 912 651 0 17
 364 0 654 912 334 73 175 359 0 902 +17 76 0 882 90 79 73 912 347 0 364 +17 334
 0 654 364 168 172 911 329 0 918 +17 175 0 655 328 902 172 364 359 0 334 -17 902
 0 655 175 361 73 90 350 0 0 -15 655 1428 0 902 650 0 17 361 0 655 902 328 81 17
8 365 0 0 +17 328 0 655 361 175 164 918 324 0 920 +17 178 0 214 201 898 164 361
 365 0 328 -17 201 0 214 198 178 193 920 325 0 337 +17 198 0 214 257 201 199 913
 253 0 914 +17 920 0 665 918 337 164 201 325 0 0 -17 337 0 665 920 911 193 915 3
31 0 913 +15 665 1955 0 337 646 0 17 911 0 665 337 918 170 334 329 0 915 -17 913
 0 657 915 914 193 198 253 0 0 -17 914 0 657 913 37 199 267 246 0 916 -17 267 0
 687 36 916 12 914 246 0 0 +17 916 0 687 267 908 199 257 260 0 0 -15 687 1850 0
 36 685 0 17 908 0 687 916 36 55 266 261 0 0 -17 257 0 214 93 198 55 916 260 0 9
08 +17 93 0 214 223 257 87 60 368 0 881 +17 36 0 687 908 267 194 26 39 0 0 +17 9
18 0 665 911 920 172 328 324 0 0 -80 7 CCCCCDI12 legal_owners0 17 1 lCZ1 34 919
 917 9000 0 0 0 0 3 6 0 0 0 FFTFTFTTFFFFFFFFF1 81 1 240 1715 34 233 0 0 904 228
 921 82 255 3 910 70 12 1 81 1 228 1723 34 218 0 0 240 213 925 82 3 921 74 5 1 8
2 3 925 74 15 1 79 255 9 917 BTI/DetId81 1 435 1575 34 429 0 0 352 903 923 82 3
 907 70 11 1 81 1 352 1572 34 326 0 0 295 435 922 82 3 923 70 10 1 81 1 295 1571
 34 288 0 0 348 352 924 82 3 922 70 9 1 81 1 348 1570 34 350 0 0 351 295 926 82
 3 924 70 8 1 81 1 351 1569 34 347 0 0 290 348 930 82 3 926 70 7 1 81 1 290 1568
 34 285 0 0 302 351 928 82 3 930 70 6 1 81 1 302 1567 34 273 0 0 340 290 927 82
 3 928 70 5 1 81 1 340 1566 34 252 0 0 294 302 929 82 3 927 70 4 1 81 1 294 1565
 34 293 0 0 342 340 931 82 3 929 70 3 1 81 1 342 1564 34 345 0 0 297 294 935 82
 3 931 70 2 1 81 1 297 1563 34 296 0 0 84 342 932 82 3 935 70 1 1 81 1 84 1562 3
4 82 0 0 78 297 933 82 3 932 70 0 1 81 1 78 1561 34 80 0 0 63 84 934 82 3 933 70
 11 0 81 1 63 1560 34 62 0 0 70 78 937 82 3 934 70 10 0 81 1 70 1559 34 65 0 0 8
9 63 940 82 3 937 70 9 0 81 1 89 1558 34 81 0 0 74 70 939 82 3 940 70 8 0 81 1 7
4 1557 34 73 0 0 179 89 936 82 3 939 70 7 0 81 1 179 1556 34 171 0 0 75 74 938 8
2 3 936 70 6 0 81 1 75 1555 34 67 0 0 86 179 941 82 3 938 70 5 0 81 1 86 1554 34
 87 0 0 162 75 942 82 3 941 70 4 0 81 1 162 1553 34 161 0 0 94 86 944 82 3 942 7
0 3 0 81 1 94 1552 34 95 0 0 58 162 943 82 3 944 70 2 0 81 1 58 1551 34 59 0 0 9
45 94 946 82 3 943 70 1 0 81 1 945 1427 34 650 0 649 950 58 948 82 3 946 70 0 0
 81 1 649 3116 541 650 945 0 652 642 947 81 1 950 1423 34 651 0 652 180 945 949
 82 3 948 69 11 2 81 1 652 3115 541 651 950 0 660 649 955 81 1 180 1406 34 164 0
 0 173 950 951 82 3 949 69 10 2 81 1 173 1402 34 172 0 0 166 180 953 82 3 951 69
 15 0 81 1 166 1398 34 170 0 0 363 173 952 82 3 953 69 13 0 81 1 363 1346 34 365
 0 0 327 166 954 82 3 952 69 21 0 81 1 327 1343 34 324 0 0 358 363 956 82 3 954
 69 7 1 81 1 358 1340 34 359 0 0 335 327 960 82 3 956 69 27 1 81 1 335 1337 34 3
29 0 0 357 358 957 82 3 960 69 6 1 81 1 357 1334 34 287 0 0 958 335 959 82 3 957
 69 25 1 81 1 958 1316 34 673 0 680 962 357 965 82 3 959 69 10 1 81 1 680 3122 5
41 673 958 0 675 679 964 81 1 962 1296 34 662 0 661 187 958 961 82 3 965 69 8 2
 81 1 661 3119 541 662 962 0 659 667 963 81 1 187 1291 34 186 0 0 192 962 969 82
 3 961 69 9 2 81 1 192 1275 34 181 0 0 182 187 970 82 3 969 69 11 0 81 1 182 127
1 34 129 0 0 282 192 967 82 3 970 69 17 0 81 1 282 1248 34 278 0 0 301 182 968 8
2 3 967 69 9 0 81 1 301 1245 34 283 0 0 307 282 966 82 3 968 69 21 1 81 1 307 12
37 34 309 0 0 317 301 973 82 3 966 69 4 1 81 1 317 1209 34 320 0 0 275 307 975 8
2 3 973 69 5 1 81 1 275 1206 34 269 0 0 971 317 974 82 3 975 69 8 1 81 1 971 111
0 34 586 0 591 972 275 976 82 3 974 69 23 1 81 1 591 3103 541 586 971 0 590 628
 980 81 1 972 1109 34 592 0 596 978 971 977 82 3 976 68 13 2 81 1 596 3111 541 5
92 972 0 607 637 979 81 1 978 1108 34 599 0 605 981 972 985 82 3 977 68 12 2 81
 1 605 3097 541 599 978 0 670 983 982 81 1 981 1107 34 572 0 574 984 978 986 82
 3 985 68 11 2 81 1 574 3099 541 572 981 0 983 576 990 81 1 984 1106 34 577 0 57
6 987 981 988 82 3 986 68 10 2 81 1 576 3100 541 577 984 0 574 582 989 81 1 987
 1105 34 578 0 582 992 984 995 82 3 988 68 9 2 81 1 582 3101 541 578 987 0 576 5
90 994 81 1 992 1104 34 583 0 590 403 987 991 82 3 995 68 8 2 81 1 590 3102 541
 583 992 0 582 591 993 81 1 403 1096 34 405 0 0 410 992 996 82 3 991 68 7 2 81 1
 410 1094 34 404 0 0 412 403 997 82 3 996 68 45 1 81 1 412 1092 34 408 0 0 413 4
10 999 82 3 997 68 43 1 81 1 413 1090 34 414 0 0 418 412 998 82 3 999 68 41 1 81
 1 418 1088 34 420 0 0 421 413 1000 82 3 998 68 39 1 81 1 421 1086 34 423 0 0 43
0 418 1001 82 3 1000 68 37 1 81 1 430 1084 34 422 0 0 393 421 1005 82 3 1001 68
 35 1 81 1 393 1082 34 392 0 0 467 430 1003 82 3 1005 68 33 1 81 1 467 1081 34 4
63 0 0 400 393 1002 82 3 1003 68 31 1 81 1 400 1080 34 395 0 0 466 467 1004 82 3
 1002 68 30 1 81 1 466 1079 34 470 0 0 399 400 1010 82 3 1004 68 29 1 81 1 399 1
078 34 398 0 0 474 466 1006 82 3 1010 68 28 1 81 1 474 1077 34 377 0 0 381 399 1
008 82 3 1006 68 27 1 81 1 381 1076 34 378 0 0 455 474 1007 82 3 1008 68 26 1 81
 1 455 1075 34 450 0 0 383 381 1009 82 3 1007 68 25 1 81 1 383 1074 34 385 0 0 4
60 455 1011 82 3 1009 68 24 1 81 1 460 1073 34 452 0 0 389 383 1015 82 3 1011 68
 23 1 81 1 389 1072 34 387 0 0 459 460 1012 82 3 1015 68 22 1 81 1 459 1071 34 4
58 0 0 391 389 1013 82 3 1012 68 21 1 81 1 391 1070 34 386 0 0 462 459 1014 82 3
 1013 68 20 1 81 1 462 1069 34 461 0 0 376 391 1017 82 3 1014 68 19 1 81 1 376 1
068 34 372 0 0 449 462 1020 82 3 1017 68 18 1 81 1 449 1065 34 446 0 0 436 376 1
019 82 3 1020 68 17 1 81 1 436 1063 34 433 0 0 439 449 1016 82 3 1019 68 14 1 81
 1 439 1061 34 437 0 0 441 436 1018 82 3 1016 68 12 1 81 1 441 1059 34 445 0 0 4
82 439 1024 82 3 1018 68 10 1 81 1 482 1058 34 485 0 0 471 441 1025 82 3 1024 68
 8 1 81 1 471 1057 34 472 0 0 477 482 1022 82 3 1025 68 7 1 81 1 477 1056 34 427
 0 0 501 471 1023 82 3 1022 68 6 1 81 1 501 1055 34 476 0 0 496 477 1021 82 3 10
23 68 5 1 81 1 496 1054 34 500 0 0 497 501 1028 82 3 1021 68 4 1 81 1 497 1053 3
4 493 0 0 488 496 1030 82 3 1028 68 3 1 81 1 488 1052 34 486 0 0 495 497 1026 82
 3 1030 68 2 1 81 1 495 1051 34 489 0 0 138 488 1029 82 3 1026 68 1 1 81 1 138 1
050 34 139 0 0 107 495 1027 82 3 1029 68 0 1 81 1 107 1049 34 106 0 0 135 138 10
31 82 3 1027 68 15 0 81 1 135 1048 34 96 0 0 97 107 1035 82 3 1031 68 14 0 81 1
 97 1047 34 100 0 0 137 135 1033 82 3 1035 68 13 0 81 1 137 1046 34 133 0 0 102
 97 1032 82 3 1033 68 12 0 81 1 102 1045 34 105 0 0 157 137 1034 82 3 1032 68 11
 0 81 1 157 1044 34 101 0 0 128 102 1036 82 3 1034 68 10 0 81 1 128 1043 34 130
 0 0 156 157 1040 82 3 1036 68 9 0 81 1 156 1042 34 152 0 0 122 128 1038 82 3 10
40 68 8 0 81 1 122 1041 34 125 0 0 155 156 1037 82 3 1038 68 7 0 81 1 155 1040 3
4 147 0 0 120 122 1039 82 3 1037 68 6 0 81 1 120 1039 34 119 0 0 143 155 1041 82
 3 1039 68 5 0 81 1 143 1038 34 145 0 0 115 120 1045 82 3 1041 68 4 0 81 1 115 1
037 34 109 0 0 146 143 1042 82 3 1045 68 3 0 81 1 146 1036 34 148 0 0 116 115 10
43 82 3 1042 68 2 0 81 1 116 1035 34 111 0 0 0 146 1044 82 3 1043 68 1 0 82 3 10
44 68 0 0 80 1 541 0 1047 8001 0 0 0 0 3 5 0 0 0 FFFFTFTFFFFFFFFFF2 83 255 3 993
 .768627450980392 .886274509803922 .952941176470588 79 15 1047 SDL/TYSA_COLOUR83
 3 994 .768627450980392 .886274509803922 .952941176470588 83 3 989 .768627450980
392 .886274509803922 .952941176470588 81 1 983 3098 541 19 1050 0 605 574 1049 8
3 3 990 .768627450980392 .886274509803922 .952941176470588 14 19 952 983 ?572 59
9 214 6 7 +0 0 572 599 24 81 1 1050 1995 34 19 0 983 1046 1048 1051 83 3 1049 .7
68627450980392 .886274509803922 .952941176470588 81 1 1046 1994 34 631 0 660 105
2 1050 1054 81 1 1048 1996 34 669 0 675 1050 1053 1055 82 3 1051 75 4 2 81 1 675
 3121 541 669 1048 0 667 680 1056 81 1 1053 1997 34 641 0 642 1048 1060 1058 82
 3 1055 75 5 2 81 1 642 3117 541 641 1053 0 649 659 1057 81 1 1060 1998 34 602 0
 670 1053 1059 1065 82 3 1058 75 6 2 81 1 670 3096 541 602 1060 0 645 605 1061 8
1 1 1059 1999 34 636 0 645 1060 729 1063 82 3 1065 75 7 2 81 1 645 3095 541 636
 1059 0 1062 670 1064 81 1 729 2154 34 728 0 0 1059 725 1066 82 3 1063 75 8 2 81
 1 725 2169 34 724 0 0 729 1070 1067 82 3 1066 76 12 1 81 1 1070 2197 34 546 0 1
068 725 734 1069 82 3 1067 76 14 1 14 546 2195 1068 ?1072 540 1075 6 554 -0 0 10
72 540 24 81 1 1068 3137 541 546 1070 0 542 1074 1071 81 1 734 2203 34 733 0 0 1
070 740 1073 82 3 1069 76 13 2 81 1 740 2218 34 730 0 0 734 1079 1080 82 3 1073
 76 10 1 81 1 1079 2246 34 538 0 543 740 742 1077 82 3 1080 76 8 1 81 1 543 3134
 541 538 1079 0 1078 536 1076 81 1 742 2252 34 718 0 0 1079 719 1083 82 3 1077 7
6 9 2 81 1 719 2267 34 712 0 0 742 714 1085 82 3 1083 76 4 1 81 1 714 2295 34 10
81 0 1084 719 715 1082 82 3 1085 76 6 1 14 1081 2293 1084 ?1086 703 1090 6 1088
 -0 0 1086 703 24 81 1 1084 3131 541 1081 714 0 1087 1089 1091 82 3 1082 76 5 2
 81 1 1087 3130 541 703 1095 0 701 1084 1093 81 1 1089 3132 541 1086 1092 0 1084
 1078 1094 83 3 1091 .768627450980392 .886274509803922 .952941176470588 14 1086
 2229 1089 ?548 1081 1096 6 1100 +0 0 548 1081 24 81 1 1092 2415 34 1086 0 1089
 1097 1098 1099 81 1 1078 3133 541 548 1098 0 1089 543 1102 83 3 1094 .768627450
980392 .886274509803922 .952941176470588 14 548 2234 1078 ?538 1086 1105 6 1104
 -0 0 538 1086 24 81 1 1098 2416 34 548 0 1078 1092 1101 1103 83 3 1102 .7686274
50980392 .886274509803922 .952941176470588 81 1 1101 2417 34 540 0 542 1098 545
 1106 82 3 1103 77 5 2 81 1 542 3136 541 540 1101 0 536 1068 1107 81 1 545 2418
 34 532 0 536 1101 1109 1108 82 3 1106 77 6 2 81 1 1109 2419 34 639 0 1062 545 1
110 1111 82 3 1108 77 7 2 14 639 2086 1062 ?636 1115 1113 6 627 -632 1115 636 11
15 24 81 1 1062 3094 541 639 1109 0 1112 645 1114 81 1 1110 2420 34 1115 0 1112
 1109 1120 1116 82 3 1111 77 8 2 14 1115 2100 1112 ?639 1118 1117 6 627 -639 111
8 639 1118 24 81 1 1112 3093 541 1115 1110 0 1119 1062 1121 81 1 1120 2421 34 11
18 0 1119 1110 1125 1122 82 3 1116 77 9 2 14 1118 2114 1119 ?1115 531 1123 6 627
 -1115 531 1115 531 24 81 1 1119 3092 541 1118 1120 0 1124 1112 1127 81 1 1125 2
422 34 531 0 1124 1120 746 1130 82 3 1122 77 10 2 14 531 2128 1124 ?1118 570 112
9 6 627 -1118 632 1118 570 24 81 1 1124 3091 541 531 1125 0 568 1119 1126 81 1 7
46 2746 34 731 0 0 1125 743 1128 82 3 1130 77 11 2 81 1 743 2747 34 744 0 0 746
 760 1134 82 3 1128 79 0 1 81 1 760 2748 34 752 0 0 743 769 1135 82 3 1134 79 1
 1 81 1 769 2749 34 764 0 0 760 785 1132 82 3 1135 79 2 1 81 1 785 2750 34 777 0
 0 769 763 1133 82 3 1132 79 3 1 81 1 763 2751 34 761 0 0 785 773 1131 82 3 1133
 79 4 1 81 1 773 2752 34 774 0 0 763 787 1138 82 3 1131 79 5 1 81 1 787 2753 34
 782 0 0 773 751 1140 82 3 1138 79 6 1 81 1 751 2754 34 750 0 0 787 770 1136 82
 3 1140 79 7 1 81 1 770 2755 34 757 0 0 751 778 1139 82 3 1136 79 8 1 81 1 778 2
756 34 775 0 0 770 790 1137 82 3 1139 79 9 1 81 1 790 2757 34 747 0 0 778 1141 1
145 82 3 1137 79 10 1 81 1 1141 2758 34 1072 0 1074 790 1143 1142 82 3 1145 79 1
1 1 14 1072 2676 1074 ?1144 546 1146 6 1150 -0 0 1144 546 24 81 1 1074 3138 541
 1072 1141 0 1068 1148 1147 81 1 1143 2759 34 1144 0 1148 1141 1149 1151 82 3 11
42 79 0 2 14 1144 2681 1148 ?1155 1072 1152 6 1153 +0 0 1155 1072 24 81 1 1148 3
139 541 1144 1143 0 1074 1154 1157 81 1 1149 2760 34 869 0 1160 1143 1159 1156 8
2 3 1151 79 1 2 14 869 2564 1160 ?855 1158 1161 6 1162 +0 0 855 1158 24 81 1 116
0 3145 541 869 1149 0 1164 867 1163 81 1 1159 2761 34 1158 0 1164 1149 1165 1166
 82 3 1156 79 2 2 14 1158 2559 1164 ?869 1170 1168 6 1167 -0 0 869 1170 24 81 1
 1164 3144 541 1158 1159 0 1169 1160 1175 81 1 1165 2762 34 1170 0 1169 1159 117
1 1173 82 3 1166 79 3 2 14 1170 2603 1169 ?1158 1172 1174 6 1176 +0 0 1158 1172
 24 81 1 1169 3143 541 1170 1165 0 1180 1164 1177 81 1 1171 2763 34 1172 0 1180
 1165 1178 1179 82 3 1173 79 4 2 14 1172 2598 1180 ?1170 1182 1185 6 1184 -0 0 1
170 1182 24 81 1 1180 3142 541 1172 1171 0 1181 1169 1183 81 1 1178 2764 34 1155
 0 1154 1171 1189 1190 82 3 1179 79 5 2 14 1155 2637 1154 ?1182 1144 1187 6 1188
 -0 0 1182 1144 24 81 1 1154 3140 541 1155 1178 0 1148 1181 1186 81 1 1189 2765
 34 1182 0 1181 1178 1193 1195 82 3 1190 79 6 2 14 1182 2642 1181 ?1172 1155 119
1 6 1194 +0 0 1172 1155 24 81 1 1181 3141 541 1182 1189 0 1154 1180 1192 81 1 11
93 2766 34 570 0 568 1189 1196 1200 82 3 1195 79 7 2 81 1 568 3090 541 570 1193
 0 571 1124 1198 81 1 1196 2767 34 600 0 637 1193 559 1197 82 3 1200 79 8 2 81 1
 637 3112 541 600 1196 0 596 634 1199 81 1 559 2768 34 17 0 551 1196 1201 1205 8
2 3 1197 79 9 2 81 1 1201 2769 34 553 0 558 559 1203 1202 82 3 1205 79 10 2 81 1
 558 3088 541 553 1201 0 551 571 1204 81 1 1203 2770 34 561 0 571 1201 804 1206
 82 3 1202 79 11 2 81 1 571 3089 541 561 1203 0 558 568 1210 81 1 804 3065 34 79
6 0 0 1203 801 1207 82 3 1206 79 12 2 81 1 801 3066 34 802 0 0 804 809 1208 82 3
 1207 88 0 1 81 1 809 3067 34 810 0 0 801 813 1209 82 3 1208 88 1 1 81 1 813 306
8 34 811 0 0 809 820 1212 82 3 1209 88 2 1 81 1 820 3069 34 814 0 0 813 821 1215
 82 3 1212 88 3 1 81 1 821 3070 34 817 0 0 820 822 1214 82 3 1215 88 4 1 82 3 12
14 88 5 1 83 3 1210 .768627450980392 .886274509803922 .952941176470588 83 3 1204
 .768627450980392 .886274509803922 .952941176470588 81 1 634 3113 541 632 1211 0
 637 660 1213 83 3 1199 .768627450980392 .886274509803922 .952941176470588 81 1
 1211 3083 34 632 0 634 1216 0 1217 81 1 660 3114 541 631 1046 0 634 652 1219 83
 3 1213 .768627450980392 .886274509803922 .952941176470588 83 3 1219 .7686274509
80392 .886274509803922 .952941176470588 81 1 1216 3082 34 598 0 607 1218 1211 12
20 82 3 1217 88 9 2 81 1 607 3110 541 598 1216 0 608 596 1221 81 1 1218 3081 34
 610 0 608 1225 1216 1223 82 3 1220 88 8 2 81 1 608 3109 541 610 1218 0 613 607
 1222 81 1 1225 3080 34 611 0 613 1224 1218 1230 82 3 1223 88 7 2 81 1 613 3108
 541 611 1225 0 618 608 1226 81 1 1224 3079 34 615 0 618 1228 1225 1227 82 3 123
0 88 6 2 81 1 618 3107 541 615 1224 0 621 613 1229 81 1 1228 3078 34 617 0 621 1
231 1224 1235 82 3 1227 88 5 2 81 1 621 3106 541 617 1228 0 626 618 1232 81 1 12
31 3077 34 623 0 626 1233 1228 1234 82 3 1235 88 4 2 81 1 626 3105 541 623 1231
 0 628 621 1237 81 1 1233 3076 34 595 0 628 1240 1231 1239 82 3 1234 88 3 2 81 1
 628 3104 541 595 1233 0 591 626 1236 81 1 1240 3075 34 829 0 852 1238 1233 1244
 82 3 1239 88 2 2 81 1 852 3147 541 829 1240 0 867 0 1245 81 1 1238 3074 34 855
 0 867 800 1240 1242 82 3 1244 88 1 2 81 1 867 3146 541 855 1238 0 1160 852 1243
 81 1 800 3073 34 759 0 0 792 1238 1241 82 3 1242 88 0 2 81 1 792 3072 34 791 0
 0 822 800 1248 82 3 1241 88 8 1 82 3 1248 88 7 1 83 3 1243 .768627450980392 .88
6274509803922 .952941176470588 83 3 1245 .768627450980392 .886274509803922 .9529
41176470588 83 3 1236 .768627450980392 .886274509803922 .952941176470588 83 3 12
37 .768627450980392 .886274509803922 .952941176470588 83 3 1232 .768627450980392
 .886274509803922 .952941176470588 83 3 1229 .768627450980392 .886274509803922 .
952941176470588 83 3 1226 .768627450980392 .886274509803922 .952941176470588 83
 3 1222 .768627450980392 .886274509803922 .952941176470588 83 3 1221 .7686274509
80392 .886274509803922 .952941176470588 83 3 1198 .768627450980392 .886274509803
922 .952941176470588 83 3 1192 .768627450980392 .886274509803922 .95294117647058
8 15 1191 2645 0 1250 1182 1246 50 1194 2714 0 1182 871 1188 0 +693889390390723e
-32 -.0222 3469446951953615e-33 0 -1 0 1 0 0 51 871 3025 0 855 854 1194 0 --.015
 -.0205 1653273178848925e-33 0 1 0 .0135 0 0 1 51 1188 2712 0 1155 1194 1176 0 +
-.026 -.0222 -.016 0 -1 0 .0015 0 0 -1 50 1176 2710 0 1170 1188 1184 0 +69388939
0390723e-32 -.0222 3469446951953615e-33 0 -1 0 1 0 0 51 1184 2707 0 1172 1176 11
62 0 +.026 -.0222 -.016 0 -1 0 .0015 0 0 -1 50 1162 2706 0 869 1184 1167 0 +6938
89390390723e-32 -.0222 3469446951953615e-33 0 -1 0 1 0 0 51 1167 2703 0 1158 116
2 1153 0 +.026 -.0222 .016 0 -1 0 .0015 0 0 -1 50 1153 2702 0 1144 1167 1150 0 +
693889390390723e-32 -.0222 3469446951953615e-33 0 -1 0 1 0 0 51 1150 2699 0 1072
 1153 1088 0 +-.026 -.0222 .016 0 -1 0 .0015 0 0 -1 50 1088 2369 0 1081 1150 704
 0 +693889390390723e-32 0 3469446951953615e-33 0 -1 0 1 0 0 51 704 2368 0 696 10
88 1249 0 -.026 -.02 .016 0 1 0 .0015 0 0 1 51 1249 2367 0 703 704 552 0 -.026 -
.02 .016 0 1 0 .002 0 0 1 14 703 2283 1087 ?1081 696 1247 6 1249 -0 0 1081 696 2
4 50 552 2365 0 538 1249 1104 0 +693889390390723e-32 0 3469446951953615e-33 0 -1
 0 1 0 0 51 1104 2364 0 548 552 1100 0 -.026 -.02 -.016 0 1 0 .0021 0 0 1 51 110
0 2363 0 1086 1104 554 0 -.026 -.02 -.016 0 1 0 .0015 0 0 1 50 554 2361 0 546 11
00 539 0 +693889390390723e-32 0 3469446951953615e-33 0 -1 0 1 0 0 15 1247 2276 0
 745 703 1251 17 745 0 1247 745 745 0 1255 718 0 0 +15 1251 2277 0 512 703 0 17
 512 0 1251 512 512 0 877 505 0 0 +17 1255 0 1253 1255 1255 0 745 718 0 0 -15 12
53 2297 0 1255 1081 0 50 854 3027 0 829 0 871 0 +693889390390723e-32 -.0205 3469
446951953615e-33 0 -1 0 1 0 0 17 1250 0 1191 1250 1250 0 789 782 0 0 -15 1246 26
46 0 786 1182 0 17 786 0 1246 786 786 0 1252 747 0 0 +17 1252 0 1187 1252 1252 0
 786 747 0 0 -15 1187 2640 0 1252 1155 1254 15 1254 2641 0 783 1155 0 17 783 0 1
254 783 783 0 1256 777 0 0 +17 1256 0 1260 1256 1256 0 783 777 0 0 -15 1260 2464
 0 1256 600 1258 15 1258 2457 0 1257 600 892 17 1257 0 1258 1257 1257 0 749 744
 0 0 -17 749 0 1259 749 749 0 1257 744 0 0 +15 1259 2680 0 749 1072 0 17 789 0 1
261 789 789 0 1250 782 0 0 +15 1261 2491 0 789 561 0 83 3 1186 .768627450980392
 .886274509803922 .952941176470588 83 3 1183 .768627450980392 .886274509803922 .
952941176470588 15 1185 2601 0 1265 1172 1262 17 1265 0 1185 1265 1265 0 780 775
 0 0 -15 1262 2602 0 772 1172 0 17 772 0 1262 772 772 0 1263 764 0 0 +17 1263 0
 1264 1263 1263 0 772 764 0 0 -15 1264 2471 0 1263 600 1260 17 780 0 1267 780 78
0 0 1265 775 0 0 +15 1267 2607 0 780 1170 0 83 3 1177 .768627450980392 .88627450
9803922 .952941176470588 15 1174 2606 0 1270 1170 1267 17 1270 0 1174 1270 1270
 0 776 774 0 0 -17 776 0 1269 776 776 0 1270 774 0 0 +15 1269 2498 0 776 553 0 8
3 3 1175 .768627450980392 .886274509803922 .952941176470588 15 1168 2562 0 1266
 1158 1268 17 1266 0 1168 1266 1266 0 767 757 0 0 -15 1268 2563 0 758 1158 0 17
 758 0 1268 758 758 0 1271 752 0 0 +17 1271 0 638 1271 1271 0 758 752 0 0 -15 63
8 2478 0 1271 600 1264 17 767 0 1272 767 767 0 1266 757 0 0 +15 1272 2568 0 767
 869 0 83 3 1163 .768627450980392 .886274509803922 .952941176470588 15 1161 2567
 0 1274 869 1272 17 1274 0 1161 1274 1274 0 762 761 0 0 -17 762 0 562 762 762 0
 1274 761 0 0 +15 562 2505 0 762 17 0 83 3 1157 .768627450980392 .88627450980392
2 .952941176470588 15 1152 2684 0 1273 1144 1275 17 1273 0 1152 1273 1273 0 753
 731 0 0 -15 1275 2685 0 754 1144 0 17 754 0 1275 754 754 0 1276 750 0 0 +17 127
6 0 1146 1276 1276 0 754 750 0 0 -15 1146 2679 0 1276 1072 1259 17 753 0 1280 75
3 753 0 1273 731 0 0 +15 1280 2484 0 753 570 0 83 3 1147 .768627450980392 .88627
4509803922 .952941176470588 83 3 1126 .768627450980392 .886274509803922 .9529411
76470588 15 1129 733 0 448 531 533 17 448 0 1129 448 448 0 1278 446 0 0 +17 1278
 0 575 1278 1278 0 448 446 0 0 -15 575 937 0 1278 561 1261 83 3 1127 .7686274509
80392 .886274509803922 .952941176470588 15 1123 734 0 440 1118 523 17 440 0 1123
 440 440 0 1277 433 0 0 +15 523 2111 0 524 1118 0 17 1277 0 565 1277 1277 0 440
 433 0 0 -15 565 949 0 1277 553 1269 83 3 1121 .768627450980392 .886274509803922
 .952941176470588 15 1117 735 0 442 1115 1279 17 442 0 1117 442 442 0 563 437 0
 0 +15 1279 2097 0 520 1115 0 17 520 0 1279 520 520 0 1285 509 0 0 +17 1285 0 12
81 1285 1285 0 520 509 0 0 -15 1281 2272 0 1285 696 0 17 563 0 556 563 563 0 442
 437 0 0 -83 3 1114 .768627450980392 .886274509803922 .952941176470588 15 1113 7
36 0 443 639 1283 17 443 0 1113 443 443 0 1282 445 0 0 +15 1283 2083 0 507 639 0
 17 507 0 1283 507 507 0 1284 506 0 0 +17 1284 0 1286 1284 1284 0 507 506 0 0 -1
5 1286 2321 0 1284 684 0 17 1282 0 567 1282 1282 0 443 445 0 0 -15 567 941 0 128
2 570 1280 83 3 1107 .768627450980392 .886274509803922 .952941176470588 15 1105
 2227 0 736 548 1290 17 736 0 1105 736 736 0 1287 733 0 0 +15 1290 2228 0 522 54
8 0 17 522 0 1290 522 522 0 876 30 0 0 +17 1287 0 1288 1287 1287 0 736 733 0 0 -
15 1288 2248 0 1287 538 0 81 1 1097 2414 34 696 0 701 1095 1092 1289 82 3 1099 7
7 4 2 81 1 701 3129 541 696 1097 0 700 1087 1292 81 1 1095 2413 34 703 0 1087 12
95 1097 1294 82 3 1289 77 3 2 81 1 1295 2412 34 684 0 691 528 1095 1291 82 3 129
4 77 2 2 81 1 691 3126 541 684 1295 0 683 694 1293 81 1 528 2411 34 686 0 694 53
0 1295 1299 82 3 1291 77 1 2 81 1 694 3127 541 686 528 0 691 700 1300 82 3 1299
 77 0 2 83 3 1300 .768627450980392 .886274509803922 .952941176470588 81 1 683 31
25 541 685 1297 0 689 691 1298 83 3 1293 .768627450980392 .886274509803922 .9529
41176470588 81 1 1297 1849 34 685 0 683 197 202 1296 81 1 689 3124 541 232 1303
 0 679 683 1305 83 3 1298 .768627450980392 .886274509803922 .952941176470588 81
 1 1303 1758 34 232 0 689 207 268 1301 81 1 679 3123 541 676 1304 0 680 689 1302
 83 3 1305 .768627450980392 .886274509803922 .952941176470588 81 1 1304 1991 34
 676 0 679 373 1306 1310 83 3 1302 .768627450980392 .886274509803922 .9529411764
70588 81 1 373 1990 34 339 0 0 316 1304 1308 81 1 1306 1992 34 646 0 659 1304 10
52 1307 82 3 1310 75 0 2 81 1 659 3118 541 646 1306 0 642 661 1309 81 1 1052 199
3 34 239 0 667 1306 1046 1311 82 3 1307 75 1 2 81 1 667 3120 541 239 1052 0 661
 675 1315 82 3 1311 75 2 2 83 3 1315 .768627450980392 .886274509803922 .95294117
6470588 83 3 1309 .768627450980392 .886274509803922 .952941176470588 81 1 316 19
89 34 47 0 0 366 373 1313 82 3 1308 75 13 1 81 1 366 1988 34 368 0 0 371 316 131
2 82 3 1313 75 12 1 81 1 371 1987 34 369 0 0 313 366 1314 82 3 1312 75 11 1 81 1
 313 1986 34 226 0 0 314 371 1316 82 3 1314 75 10 1 81 1 314 1985 34 315 0 0 322
 313 1320 82 3 1316 75 9 1 81 1 322 1984 34 325 0 0 276 314 1317 82 3 1320 75 8
 1 81 1 276 1983 34 280 0 0 336 322 1318 82 3 1317 75 7 1 81 1 336 1982 34 331 0
 0 277 276 1319 82 3 1318 75 6 1 81 1 277 1981 34 245 0 0 263 336 1322 82 3 1319
 75 5 1 81 1 263 1980 34 39 0 0 249 277 1325 82 3 1322 75 4 1 81 1 249 1979 34 2
30 0 0 264 263 1324 82 3 1325 75 3 1 81 1 264 1978 34 261 0 0 255 249 1321 82 3
 1324 75 2 1 81 1 255 1977 34 236 0 0 57 264 1323 82 3 1321 75 1 1 81 1 57 1976
 34 55 0 0 32 255 1326 82 3 1323 75 0 1 81 1 32 1975 34 194 0 0 29 57 1327 82 3
 1326 75 5 0 82 3 1327 75 4 0 81 1 207 1747 34 167 0 0 211 1303 1329 81 1 268 17
96 34 246 0 0 1303 258 1328 82 3 1301 74 7 2 81 1 258 1809 34 253 0 0 268 259 13
30 82 3 1328 74 6 1 81 1 259 1812 34 260 0 0 258 205 1331 82 3 1330 74 19 1 81 1
 205 1824 34 193 0 0 259 197 1335 82 3 1331 74 21 1 81 1 197 1834 34 199 0 0 205
 1297 1333 82 3 1335 74 5 0 82 3 1333 74 13 0 82 3 1329 74 3 0 81 1 202 1971 34
 196 0 0 1297 43 1332 82 3 1296 74 10 2 81 1 43 1972 34 45 0 0 202 35 1334 82 3
 1332 75 0 0 82 3 1334 75 1 0 83 3 1292 .768627450980392 .886274509803922 .95294
1176470588 15 1096 2222 0 1340 1086 1336 17 1340 0 1096 1340 1340 0 737 730 0 0
 -15 1336 2223 0 529 1086 0 17 529 0 1336 529 529 0 524 517 0 0 -17 737 0 549 73
7 737 0 1340 730 0 0 +15 549 2247 0 737 538 1288 83 3 1093 .768627450980392 .886
274509803922 .952941176470588 15 1090 2296 0 716 1081 1253 17 716 0 1090 716 716
 0 1338 712 0 0 +17 1338 0 702 1338 1338 0 716 712 0 0 -15 702 2271 0 1338 696 1
281 83 3 1076 .768627450980392 .886274509803922 .952941176470588 83 3 1071 .7686
27450980392 .886274509803922 .952941176470588 15 1075 2198 0 726 546 1337 17 726
 0 1075 726 726 0 555 724 0 0 +15 1337 2199 0 1339 546 0 17 1339 0 1337 1339 133
9 0 735 728 0 0 -17 735 0 550 735 735 0 1339 728 0 0 +15 550 2178 0 735 540 1341
 15 1341 2179 0 27 540 0 17 27 0 1341 27 27 0 872 11 0 0 +17 555 0 537 555 555 0
 726 724 0 0 -83 3 1064 .768627450980392 .886274509803922 .952941176470588 83 3
 1061 .768627450980392 .886274509803922 .952941176470588 83 3 1057 .768627450980
392 .886274509803922 .952941176470588 83 3 1056 .768627450980392 .88627450980392
2 .952941176470588 82 3 1054 75 3 2 83 3 982 .768627450980392 .886274509803922 .
952941176470588 83 3 979 .768627450980392 .886274509803922 .952941176470588 83 3
 980 .768627450980392 .886274509803922 .952941176470588 83 3 963 .76862745098039
2 .886274509803922 .952941176470588 83 3 964 .768627450980392 .886274509803922 .
952941176470588 83 3 955 .768627450980392 .886274509803922 .952941176470588 83 3
 947 .768627450980392 .886274509803922 .952941176470588 17 905 0 882 1345 901 10
9 108 463 0 0 -17 104 0 597 899 484 105 901 470 0 481 +15 597 923 0 104 592 0 17
 899 0 597 1342 104 133 481 427 0 900 -17 484 0 597 104 1342 106 1343 485 0 901
 +17 1342 0 597 484 899 139 140 395 0 0 -17 1343 0 593 1344 108 139 484 485 0 13
42 -15 593 925 0 108 586 0 17 1344 0 593 487 1343 145 144 392 0 0 -17 108 0 593
 1343 487 106 905 463 0 484 +17 487 0 593 108 1344 109 1347 486 0 905 +17 1347 0
 589 1350 114 145 487 486 0 1344 -15 589 927 0 114 583 0 17 1350 0 589 492 1347
 148 141 386 0 0 -17 114 0 589 1347 492 109 1345 461 0 487 +17 492 0 589 114 135
0 111 1349 489 0 1345 +17 1345 0 882 890 905 111 114 461 0 0 -17 890 0 882 456 1
345 119 117 458 0 891 -17 117 0 581 1349 121 111 890 458 0 492 +17 891 0 584 153
 124 119 456 452 0 0 -15 584 931 0 891 577 0 17 153 0 584 384 891 147 121 493 0
 1346 -17 124 0 584 891 384 125 895 500 0 453 +17 384 0 584 124 153 152 894 385
 0 0 +17 894 0 892 149 160 147 384 385 0 0 -17 149 0 892 141 894 148 1346 387 0
 1349 +17 141 0 892 144 149 145 1350 386 0 1347 +17 1346 0 581 121 1349 147 149
 387 0 894 -17 1349 0 581 1346 117 148 492 489 0 1350 -15 581 929 0 117 578 0 17
 121 0 581 117 1346 119 153 493 0 890 +17 144 0 892 140 141 139 1344 392 0 1343
 +17 140 0 892 132 144 133 1342 395 0 899 +17 900 0 603 481 896 133 132 398 0 0
 -17 503 0 1348 503 503 0 879 480 0 0 +15 1348 2326 0 503 686 0 17 862 0 629 862
 862 0 805 796 0 0 -15 629 2839 0 862 595 844 17 861 0 630 861 861 0 808 802 0 0
 -15 630 2832 0 861 623 846 17 863 0 622 863 863 0 807 810 0 0 -15 622 2825 0 86
3 617 850 17 858 0 619 858 858 0 812 811 0 0 -15 619 2818 0 858 615 847 17 860 0
 616 860 860 0 818 814 0 0 -15 616 2811 0 860 611 848 17 853 0 612 853 853 0 825
 817 0 0 -15 612 2804 0 853 610 849 82 3 824 88 6 1 81 1 717 2316 34 515 0 0 715
 697 1354 81 1 697 2344 34 695 0 700 717 1355 1352 82 3 1354 76 2 1 81 1 1355 24
02 34 1 0 1353 697 504 1351 82 3 1352 76 1 2 81 1 1353 3084 1358 1 1355 14 0 0 1
360 81 1 504 2403 34 480 0 0 1355 508 1356 82 3 1351 68 0 3 81 1 508 2404 34 506
 0 0 504 513 1359 82 3 1356 77 0 1 81 1 513 2405 34 505 0 0 508 516 1357 82 3 13
59 77 1 1 81 1 516 2406 34 509 0 0 513 525 1361 82 3 1357 77 2 1 82 3 1361 77 3
 1 80 1 1358 1365 1363 8038 0 0 0 0 0 0 0 0 0 TTTTTTTTTTTTTFTFT10 81 1 14 3085 1
365 1 1353 2 0 0 1362 98 255 4 1360 66 97 99 107 80 1 1365 1364 1366 8017 0 0 0
 0 0 0 0 0 0 TTTTTTTTTTTTTFTFT3 84 255 4 1362 Back79 13 1366 SDL/TYSA_NAME79 14
 1363 SDL/TYSA_UNAME82 3 720 76 0 1 15 692 2325 0 709 686 1348 17 708 0 698 708
 708 0 706 515 0 0 -15 698 2320 0 708 684 1286 83 3 705 .768627450980392 .886274
509803922 .952941176470588 83 3 560 .768627450980392 .886274509803922 .952941176
470588 83 3 544 .768627450980392 .886274509803922 .952941176470588 81 1 25 2409
 34 11 0 0 519 530 1370 82 3 526 77 7 1 81 1 519 2408 34 30 0 0 525 25 1368 82 3
 1370 77 6 1 82 3 1368 77 5 1 82 3 521 77 4 1 82 3 244 74 17 1 82 3 212 74 11 0
 82 3 42 75 2 0 82 3 33 75 3 0 19 18 981 0 1 0 10 6 0 S0 74 4 CI16 index_map_off
set0 0 1 dCCZ20 16 5 0 0 1211 1353 14 2 852 0 0 0 0 0 0 0 0 0 0 0 0 0 0 0 80 1 1
3 541 1367 8040 0 0 0 0 3 5 0 0 0 TTTFFFFFFFFFFFFFF2 83 3 15 .768627450980392 .8
86274509803922 .952941176470588 79 17 1367 SDL/TYSA_COLOUR_21 0 
